<?xml version="1.0" encoding="utf-8"?>
<!-- Generator: Adobe Illustrator 23.0.2, SVG Export Plug-In . SVG Version: 6.00 Build 0)  -->
<svg version="1.1" id="Layer_1" xmlns="http://www.w3.org/2000/svg" xmlns:xlink="http://www.w3.org/1999/xlink" x="0px" y="0px"
	 viewBox="0 0 241 108" style="enable-background:new 0 0 241 108;" xml:space="preserve">
<style type="text/css">
	.st0{fill-rule:evenodd;clip-rule:evenodd;fill:#7348AA;}
</style>
<path class="st0" d="M233.3,67.7c6,0,0.6,8,0.6,8l-2.6,4.4c-1.3,3-5.9,2.7-5.9,2.7C141.2,77.3,50.9,94.4,50.9,94.4
	c-2.4,0.5-1.3-2.1-1.3-2.1l0.5-1.4c0.6-1.5,1.4-1.6,1.8-1.7C155.6,66.9,233.3,67.7,233.3,67.7L233.3,67.7z M60.8,26.3L49.5,66.8
	c-10.3,46.4-34.7,39.9-34.7,39.9C0,103.4,0.2,90.9,0.1,87.5l0,0c0,0-0.5-5.5,0.7-10.4c0,0,0.6-3.7,3.7-3.7v0c0.4,0,0.8,0,1.2,0
	l5.2,0.5c4.5,0.2,3.5,3,3.5,3c-2,8.9,0.9,15,0.9,15c9.7,16.9,22.4-29.5,22.4-29.5c4.6-14.5,7.7-24.7,10-33.7
	c-3.8,1.5-6.3-1.1-6.3-1.1c-1.5-1.5-0.7-3-0.7-3c4.6-1.2,6.1-7.9,6.1-7.9c1-4.6,4.7-2.7,4.7-2.7c8.3,3.2,9.7,3.5,9.7,3.5
	c2.4,1.1,1,4.2,1,4.2L60.8,26.3L60.8,26.3z M236.8,12.9c0.6,14.4,3.9,32.6,3.9,32.6c2.6,13.5-15.5,13.9-15.5,13.9
	c-15.1,0.7-16.8-11.7-16.8-11.7c-0.5-1.8-1.9,0-1.9,0c-8.7,9.9-18.8,9.7-18.8,9.7c-8.9,0.9-13-6.2-13-6.2c-1-1-1.6,0.3-1.6,0.3
	c-6.9,12.4-16.6,8-16.6,8c-5.2-1.4-4.7-11.9-4.7-11.9c0.2-3.4,2.8-15.1,2.8-15.1c0.1-1.4-2.3,1.5-2.3,1.5
	c-4.8,5.6-13.1,22.9-13.1,22.9c-1.9,4.6-4.8,4.6-4.8,4.6l-3.9,0.3c-2,0.1-2.3-2.4-2.3-2.4c-0.6-3.3,3.9-24.3,3.9-24.3
	c0.9-3.9-1.6,0.2-1.6,0.2c-6.6,9.6-18,30-18,30c-1.1,2.2-2.3,2.4-2.3,2.4l-1.5,0.4c-0.9,0.2-2.9,0.9-3.4-0.1
	c-0.6-1.1-1.2-2.2-1.7-3.3c-1.2-2.5-2.7,0.8-2.7,0.8c-2.7,5.3-6.8,6.6-9.6,6.9c-1.9,0.3-3.7-0.1-4.8-0.4c-0.4-0.1-0.7-0.2-1.1-0.4
	c-2.8-1.3-2.8-5.3-2.8-5.3c0-0.4-0.1-0.6-0.1-0.6l-0.4-4.6c-0.3-1.4-1.1-0.3-1.1-0.3l-7.9,13.3c-1,1.9-2.4,2.8-3.8,3.1
	c-0.2,0.1-0.5,0.1-0.7,0.1c-4.8,0.8-7-1-7-1c-0.8-0.5-1.4-1.2-1.9-1.9c-1.4-1.2-2-4.1-2.2-6.5c-0.2-2.1-0.1-3.9-0.1-3.9
	c0.8-10.3,8.2-24.6,8.2-24.6c7.4-16.1,16.6-20.7,16.6-20.7c7.2-4.3,12.7,1.9,12.7,1.9c1-1.5,2.3-4.1,2.3-4.1
	c2.3-3.7,5.9-1.8,5.9-1.8l5.2,2.1c1.6,1-0.3,4.1-0.3,4.1l-1.1,2.6c-1.6,3.4-13.4,29.6-13.4,29.6c-1.9,4.2-1.8,6.8-1.8,6.8
	c0.4,3.5,4,2.1,4,2.1c6.2-2.9,10.8-14,10.8-14C110.4,41,119.3,12,119.3,12c1.1-3,3.3-2,3.3-2l7.8,2c2,0.5,0.8,2.9,0.8,2.9
	c-2.8,6.3-10.8,28.5-10.8,28.5c2.1-2.1,24.4-36.4,24.4-36.4c0.9-1.8,2.7-1.2,2.7-1.2l5.7,1.9c2,0.7,0.8,2.5,0.8,2.5l-2.5,5.6
	c-3.1,6.3-8.4,23.2-8.4,23.2c1.9-6.3,19-27.4,19-27.4c0.5-0.6,0.9-1.2,1.1-1.5c1-1.4,2.3-0.7,2.3-0.7l7.2,3.6
	c1.9,0.9,0.9,2.7,0.9,2.7l-3.7,7.1c-5.3,10.9-8.2,26.3-8.2,26.3c-0.8,4.6,3.1,1.4,3.1,1.4c3.1-2.2,9.3-12.7,9.3-12.7
	c4.1-25.1,17.8-34.5,17.8-34.5c7.7-4.2,15.2,1.9,15.2,1.9c7,6.2,1,17.1,1,17.1c-3.8,8.1-18,13.8-22.6,15.5c-0.7,0.3-2.4,1.3-2.3,3.7
	c0.2,3,0.5,7,4.2,7c16.4-2.6,24.9-16.8,24.9-16.8c1.2-2.4,2.9-1.7,2.9-1.7c5,1.6,7.3,3.8,7.3,3.8c1.8,1.4,0.1,2.8,0.1,2.8l-1.6,1.7
	c-3.6,3.9-3.8,6.5-3.8,6.5c-0.9,6.8,4.6,6.9,4.6,6.9c10.8-0.2,7.4-14.2,7.4-14.2c-1.8-7.8-1.8-15.3-1.8-15.3c-0.3-1.5-2,0.5-2,0.5
	c-3.8,3.7-7.7-0.7-7.7-0.7c7.9-3.9,8.9-11.8,8.9-11.8c0.7-4.6,1.6-7.5,1.6-7.5c0.4-1.2,1.2-2.3,2.1-2.5c3-0.6,6.5,0.8,6.5,0.8
	c1.4,0.7,1.3,1.4,1,2.8C236.5,8.3,236.8,12.9,236.8,12.9L236.8,12.9z M186.4,26.6c-1.1,3.3,0.6,3.2,0.6,3.2
	c2.4,0.4,10.5-6.5,10.5-6.5c9.1-7.6,4.8-11.5,4.8-11.5c-1.2-1.1-3.4-0.4-3.4-0.4C190.7,14.8,186.4,26.6,186.4,26.6z M70.2,67.7
	l22.1-36.5c0,0,1.3-2.1,1.7-3.5l0-0.1c0-0.1,0-0.1,0-0.2c0-1.3-2.4-1.6-2.4-1.6c-1.8-0.3-3.6,0.9-4,1.1c-1.9,1.3-4.7,3.9-8,9.5
	c0,0-15.6,23.4-13.4,31.2c0,0,0.2,0.8,0.6,1C66.8,68.8,68.8,70,70.2,67.7L70.2,67.7z"/>
</svg>
